<?xml version="1.0" encoding="iso-8859-1"?>
<!-- Generator: Adobe Illustrator 18.0.0, SVG Export Plug-In . SVG Version: 6.00 Build 0)  -->
<!DOCTYPE svg PUBLIC "-//W3C//DTD SVG 1.1//EN" "http://www.w3.org/Graphics/SVG/1.1/DTD/svg11.dtd">
<svg version="1.1" id="Capa_1" xmlns="http://www.w3.org/2000/svg" xmlns:xlink="http://www.w3.org/1999/xlink" x="0px" y="0px"
	 viewBox="0 0 475.56 475.56" style="enable-background:new 0 0 475.56 475.56;" xml:space="preserve">
<g>
	<path d="M348.102,356.704c-12.818,40.392-59.631,66.073-110.322,66.073c-50.691,0-97.504-25.681-110.322-66.073
		c-6.015-18.954-19.317-77.16-19.317-77.16l14.321,166.127c1.417,16.438,16.077,29.889,32.577,29.889h165.482
		c16.5,0,31.159-13.45,32.576-29.889l14.321-166.126C367.418,279.546,354.117,337.751,348.102,356.704z"/>
	<path d="M87.323,38.051c0,0,51.33,231.097,75.98,305.954c8.146,24.736,40.388,40.773,74.477,40.773
		c34.088,0,66.331-16.036,74.477-40.773c24.651-74.856,75.979-305.951,75.979-305.951l0.704-8.165
		C390.359,13.45,378.018,0,361.518,0H114.042c-16.5,0-28.841,13.45-27.423,29.889L87.323,38.051z"/>
</g>
<g>
</g>
<g>
</g>
<g>
</g>
<g>
</g>
<g>
</g>
<g>
</g>
<g>
</g>
<g>
</g>
<g>
</g>
<g>
</g>
<g>
</g>
<g>
</g>
<g>
</g>
<g>
</g>
<g>
</g>
</svg>
